# xmcd
#
# Track frame offsets: 
#        150
#        9963
#        17550
#        29693
#        59767
#        68766
#        84027
#        100515
#        123953
#        154082
#        165455
#        173438
#        185442
#        195636
#        211441
#        232322
#
# Disc length: 3243 seconds
#
# Revision: 0
# Processed by: cddbd v1.5.2PL0 Copyright (c) Steve Scherf et al.
# Submitted via: ExactAudioCopy v1.1
#
DISCID=c50ca910
DTITLE=Trip - Trip
DYEAR=1972
DGENRE=Soul
TTITLE0=Road Trip Through Vienna
TTITLE1=I'm In Tears
TTITLE2=Temple Music
TTITLE3=Gospel Song
TTITLE4=We Are Here On An Island
TTITLE5=White Song
TTITLE6=I Can't Believe It
TTITLE7=Jazz Style
TTITLE8=We Are One Body
TTITLE9=Song Without Words
TTITLE10=Sex Song
TTITLE11=The Devil Take You - Like Crystal In A Bowl
TTITLE12=Hey Boy, Come On
TTITLE13=Open Your Eyes
TTITLE14=Mirror Song
TTITLE15=End Music
EXTD=
EXTT0=
EXTT1=
EXTT2=
EXTT3=
EXTT4=
EXTT5=
EXTT6=
EXTT7=
EXTT8=
EXTT9=
EXTT10=
EXTT11=
EXTT12=
EXTT13=
EXTT14=
EXTT15=
PLAYORDER=
